<svg data-v-6289eceb="" data-v-1ff7c990="" data-v-7e7f375d="" width="44" height="44" viewBox="0 0 44 44" fill="none" xmlns="http://www.w3.org/2000/svg" class="icon"><path data-v-6289eceb="" fill-rule="evenodd" clip-rule="evenodd" d="M16.6006 30.8761C16.0678 31.2108 15.375 30.8279 15.375 30.1987L15.375 15.1662C15.375 14.537 16.0678 14.1541 16.6006 14.4888L28.5633 22.0051C28.5642 22.0056 28.565 22.0061 28.5658 22.0066L28.5658 17.3633C28.5658 16.9672 28.8869 16.6462 29.2829 16.6462C29.6789 16.6462 30 16.9672 30 17.3633V27.9291C30 28.3251 29.6789 28.6462 29.2829 28.6462C28.8869 28.6462 28.5658 28.3251 28.5658 27.9291V23.3583C28.565 23.3588 28.5642 23.3593 28.5633 23.3598L16.6006 30.8761Z" fill="currentColor"></path></svg>