<svg data-v-18737662="" data-v-1ff7c990="" data-v-0b85cbc1="" width="30" height="30" viewBox="0 0 30 30" fill="none" xmlns="http://www.w3.org/2000/svg" class="icon"><path data-v-18737662="" fill-rule="evenodd" clip-rule="evenodd" d="M25.0002 14.6091C25.0002 19.0222 21.7073 22.6663 17.4445 23.2182V21.6016C20.8205 21.0623 23.4002 18.137 23.4002 14.6091C23.4002 11.0812 20.8205 8.1559 17.4445 7.61661V5.99995C21.7073 6.55192 25.0002 10.196 25.0002 14.6091ZM20.4965 14.6091C20.4965 16.5264 19.205 18.142 17.4445 18.6334V16.9287C18.3041 16.5108 18.8965 15.6291 18.8965 14.6091C18.8965 13.5891 18.3041 12.7075 17.4445 12.2895V10.5848C19.205 11.0762 20.4965 12.6918 20.4965 14.6091ZM9.05333 17.4594H5V11.3794H9.05333L15.1333 6.31278V22.5261L9.05333 17.4594Z" fill="currentColor"></path></svg>