<svg width="40" height="40" viewBox="0 0 40 40" fill="none" xmlns="http://www.w3.org/2000/svg" class="icon"><g opacity="0.9"><path data-v-77f11c05="" fill-rule="evenodd" clip-rule="evenodd" d="M9.5 21.3636V26.9H30.5V21.3637H23.6234C23.0373 22.699 21.7034 23.6317 20.1517 23.6317C18.5847 23.6317 17.2399 22.6806 16.663 21.3243V21.3636H9.5ZM16.663 19.5637H18.3838C18.3696 19.6544 18.3622 19.7475 18.3622 19.8423C18.3622 20.8306 19.1634 21.6317 20.1517 21.6317C21.14 21.6317 21.9411 20.8306 21.9411 19.8423C21.9411 19.7475 21.9338 19.6544 21.9196 19.5637H23.6001H23.9311H30.483L27.9451 12.5H12.0549L9.51704 19.5636H16.663V19.5637ZM32 27.0667V21.3637H32.0001V19.5637H31.9999C31.9978 19.4162 31.9714 19.27 31.9215 19.1312L29.3171 11.8825C29.1269 11.3531 28.6248 11 28.0623 11H11.9377C11.3752 11 10.8731 11.3531 10.6829 11.8825L8.07853 19.1312C8.02657 19.2758 8 19.4283 8 19.582V27.0667C8 27.803 8.59695 28.4 9.33333 28.4H30.6667C31.403 28.4 32 27.803 32 27.0667Z" fill="white" fill-opacity="0.8"></path></g></svg>