<svg width="44" height="44" viewBox="0 0 44 44" fill="none" xmlns="http://www.w3.org/2000/svg" class="icon"><path d="M18.7056 11H14.7944C14.3557 11 14 11.3575 14 11.7986V31.7014C14 32.1425 14.3557 32.5 14.7944 32.5H18.7056C19.1443 32.5 19.5 32.1425 19.5 31.7014V11.7986C19.5 11.3575 19.1443 11 18.7056 11Z" fill="white" fill-opacity="0.8"></path><path d="M28.9199 11H25.0088C24.57 11 24.2144 11.3575 24.2144 11.7986V31.7014C24.2144 32.1425 24.57 32.5 25.0088 32.5H28.9199C29.3587 32.5 29.7144 32.1425 29.7144 31.7014V11.7986C29.7144 11.3575 29.3587 11 28.9199 11Z" fill="white" fill-opacity="0.8"></path></svg>