<svg width="40" height="40" viewBox="0 0 40 40" fill="none" xmlns="http://www.w3.org/2000/svg" class="icon"><path fill-rule="evenodd" clip-rule="evenodd" d="M25.536 16.6934C25.6116 16.5049 25.6524 16.3043 25.6524 16.0962C25.6524 15.7339 25.5288 15.3942 25.3129 15.1016L32 15.1016V16.6934L25.536 16.6934ZM20.6907 16.6934L8 16.6934V15.1016L20.9138 15.1016C20.6979 15.3942 20.5744 15.7339 20.5744 16.0962C20.5744 16.3043 20.6151 16.5049 20.6907 16.6934Z" fill="white"></path><circle cx="23.1572" cy="15.9184" r="2.91842" stroke="white" stroke-width="1.5"></circle><path fill-rule="evenodd" clip-rule="evenodd" d="M15.5251 26.8492C15.4496 26.6607 15.4088 26.4601 15.4088 26.2521C15.4088 25.8897 15.5324 25.55 15.7484 25.2573L8 25.2573V26.8492L15.5251 26.8492ZM20.3706 26.8492L32 26.8492V25.2573L20.1473 25.2573C20.3633 25.55 20.4869 25.8897 20.4869 26.2521C20.4869 26.4601 20.4461 26.6607 20.3706 26.8492Z" fill="white"></path><circle r="2.91842" transform="matrix(-1 0 0 1 17.9038 25.9843)" stroke="white" stroke-width="1.5"></circle></svg>