<svg width="30" height="30" viewBox="0 0 30 30" fill="none" xmlns="http://www.w3.org/2000/svg" class="icon"><g opacity="0.15"><path fill-rule="evenodd" clip-rule="evenodd" d="M15.4539 4.5C21.2762 4.5 25.9961 9.20101 25.9961 15C25.9961 20.799 21.2762 25.5 15.4539 25.5C9.86479 25.5 5.29151 21.1679 4.93425 15.691L3.95801 16.08C4.50458 21.9248 9.44282 26.5 15.4539 26.5C21.8307 26.5 27.0001 21.3513 27.0001 15C27.0001 8.64873 21.8307 3.5 15.4539 3.5C10.6338 3.5 6.5036 6.44177 4.77431 10.621L5.72955 10.9382C7.32391 7.15613 11.0775 4.5 15.4539 4.5Z" fill="#E9E9E9"></path><path fill-rule="evenodd" clip-rule="evenodd" d="M7.07132 18.3088C7.44191 18.237 7.58432 17.7828 7.32119 17.5118L4.83695 14.9533C4.54427 14.6518 4.03863 14.7497 3.88063 15.1384L2.61356 18.2555C2.4397 18.6832 2.81044 19.1337 3.26404 19.0459L7.07132 18.3088Z" fill="#E9E9E9"></path></g><path fill-rule="evenodd" clip-rule="evenodd" d="M12.4419 10.401C12.4419 10.0085 12.8734 9.76905 13.2064 9.9767L20.7809 14.6994C21.0988 14.8977 21.0938 15.3623 20.7716 15.5536L13.1972 20.0515C12.8639 20.2494 12.4419 20.0092 12.4419 19.6216V10.401Z" fill="white" fill-opacity="0.8"></path></svg>