<svg width="40" height="40" viewBox="0 0 40 40" fill="none" xmlns="http://www.w3.org/2000/svg" class="icon" data-except="openTrackMore"><path  opacity="0.9" fill-rule="evenodd" clip-rule="evenodd" d="M21.5999 13.8002C21.5999 14.6839 20.8836 15.4002 19.9999 15.4002C19.1162 15.4002 18.3999 14.6839 18.3999 13.8002C18.3999 12.9165 19.1162 12.2002 19.9999 12.2002C20.8836 12.2002 21.5999 12.9165 21.5999 13.8002ZM21.5999 20.0002C21.5999 20.8839 20.8836 21.6002 19.9999 21.6002C19.1162 21.6002 18.3999 20.8839 18.3999 20.0002C18.3999 19.1165 19.1162 18.4002 19.9999 18.4002C20.8836 18.4002 21.5999 19.1165 21.5999 20.0002ZM19.9999 27.7999C20.8836 27.7999 21.5999 27.0836 21.5999 26.1999C21.5999 25.3162 20.8836 24.5999 19.9999 24.5999C19.1162 24.5999 18.3999 25.3162 18.3999 26.1999C18.3999 27.0836 19.1162 27.7999 19.9999 27.7999Z" fill="white" fill-opacity="0.8"></path></svg>