<svg data-v-36748a16="" data-v-80b4177a="" width="44" height="44" viewBox="0 0 44 44" fill="none" xmlns="http://www.w3.org/2000/svg" class="icon"><path fill-rule="evenodd" clip-rule="evenodd" d="M30.7825 15.2749C30.4905 14.9437 29.9791 14.9065 29.6402 15.1919C29.3013 15.4773 29.2633 15.9771 29.5553 16.3083L30.4485 17.3214H28.8936C25.8462 17.3214 23.652 18.6357 21.7583 20.7077C19.8228 18.6494 17.4395 17.4737 14.4053 17.4737H12.6782C12.3149 17.4737 12 17.7515 12 18.1175C12 18.4835 12.3149 18.7613 12.6782 18.7613H14.4053C17.1044 18.7613 19.1676 19.8231 20.8828 21.7131C19.167 23.6026 17.1041 24.6641 14.4053 24.6641H12.6782C12.3149 24.6641 12 24.9419 12 25.3079C12 25.6739 12.3149 25.9517 12.6782 25.9517H14.4053C17.723 25.9517 20.2603 24.5463 22.2857 22.1222C22.2912 22.1159 22.2966 22.1095 22.3018 22.1029C24.0966 19.9534 26.0317 18.609 28.8936 18.609H30.5158L29.568 19.6335C29.268 19.9578 29.2938 20.4584 29.6257 20.7516C29.9575 21.0448 30.4698 21.0195 30.7698 20.6952L32.7437 18.5613C33.0176 18.2652 33.0231 17.8162 32.7565 17.5138L30.7825 15.2749ZM23.6602 22.4186L23.5163 22.2993L23.3594 22.4018C23.2527 22.4715 23.1569 22.5349 23.0543 22.6379C22.9547 22.7379 22.8551 22.8684 22.7207 23.0684L22.5994 23.2489L22.8215 23.4332L22.8457 23.4533C24.7184 25.0076 26.2692 26.2947 28.8768 26.2947H30.4491L29.568 27.2472C29.268 27.5715 29.2938 28.0721 29.6257 28.3653C29.9575 28.6585 30.4698 28.6332 30.7698 28.3089L32.7437 26.175C33.0176 25.8789 33.0231 25.4299 32.7565 25.1275L30.7825 22.8886C30.4905 22.5574 29.9791 22.5203 29.6402 22.8056C29.3013 23.091 29.2633 23.5908 29.5553 23.922L30.512 25.0072H28.8768C26.7771 25.0072 25.5694 24.0096 23.944 22.6549L23.9423 22.6534C23.8496 22.5762 23.7556 22.4978 23.6602 22.4186Z" fill="#576AFF" ></path></svg>