<svg width="44" height="44" viewBox="0 0 44 44" fill="none" xmlns="http://www.w3.org/2000/svg" class="icon"><path fill-rule="evenodd" clip-rule="evenodd" d="M28.3994 14.1239C28.9322 13.7892 29.625 14.1721 29.625 14.8013V29.8338C29.625 30.463 28.9322 30.8459 28.3994 30.5112L16.4367 22.9949C16.4358 22.9944 16.435 22.9939 16.4342 22.9934L16.4342 27.6367C16.4342 28.0328 16.1131 28.3538 15.7171 28.3538C15.3211 28.3538 15 28.0328 15 27.6367V17.0709C15 16.6749 15.3211 16.3538 15.7171 16.3538C16.1131 16.3538 16.4342 16.6749 16.4342 17.0709V21.6417C16.435 21.6412 16.4358 21.6407 16.4367 21.6402L28.3994 14.1239Z" fill="white" fill-opacity="0.8"></path></svg>