<svg width="44" height="44" viewBox="0 0 44 44" fill="none" xmlns="http://www.w3.org/2000/svg" class="icon"><path fill-rule="evenodd" clip-rule="evenodd" d="M17.3053 17.2505H24.292L23.1052 15.9045C22.9033 15.6755 22.9296 15.33 23.1639 15.1327C23.3982 14.9354 23.7518 14.9611 23.9537 15.1901L25.9276 17.4289C26.112 17.638 26.1082 17.9485 25.9188 18.1532L23.9449 20.2871C23.7375 20.5113 23.3833 20.5287 23.1539 20.326C22.9245 20.1233 22.9066 19.7773 23.114 19.553L24.1591 18.4233H17.3053C15.038 18.4233 13.2 20.2195 13.2 22.4352C13.2 24.651 15.038 26.4472 17.3053 26.4472L17.4064 26.4471V27.6198L17.3053 27.6199C14.3752 27.6199 12 25.2987 12 22.4352C12 19.5718 14.3752 17.2505 17.3053 17.2505ZM27.4947 17.2505C30.4248 17.2505 32.8 19.5718 32.8 22.4352C32.8 25.2987 30.4248 27.6199 27.4947 27.6199L21.0124 27.6198L22.1144 28.8112C22.3218 29.0354 22.304 29.3814 22.0746 29.5841C21.8451 29.7868 21.491 29.7694 21.2836 29.5452L19.3097 27.4113C19.1203 27.2066 19.1165 26.8961 19.3008 26.687L21.2748 24.4482C21.4767 24.2192 21.8303 24.1935 22.0646 24.3908C22.2989 24.5881 22.3251 24.9336 22.1233 25.1626L20.9908 26.4471L27.4947 26.4472C29.762 26.4472 31.6 24.651 31.6 22.4352C31.6 20.2195 29.762 18.4233 27.4947 18.4233H27.3928V17.2505H27.4947Z" fill="white" fill-opacity="0.8"></path></svg>