<svg width="44" height="44" viewBox="0 0 44 44" fill="none" xmlns="http://www.w3.org/2000/svg" class="icon"><path data-v-5574f2ca="" d="M21.0795 28.7945L21.0786 28.7936C18.6578 26.6186 16.7015 24.8594 15.3426 23.2132C13.9909 21.5759 13.2999 20.1308 13.2999 18.5954C13.2999 16.1066 15.2659 14.15 17.7924 14.15C19.2117 14.15 20.5989 14.853 21.5069 15.9096L21.9999 16.4832L22.4929 15.9096C23.4009 14.853 24.7881 14.15 26.2074 14.15C28.7339 14.15 30.6999 16.1066 30.6999 18.5954C30.6999 20.1309 30.0089 21.5759 28.6571 23.2146C27.2983 24.8617 25.3425 26.6228 22.9222 28.802L22.9221 28.8021L22.9207 28.8033L22.0016 29.6261L21.0795 28.7945Z" stroke="#aaa" stroke-width="1.3"></path></svg>